<svg width="800" height="800" viewBox="0 0 800 800" fill="none" xmlns="http://www.w3.org/2000/svg">
  <defs>
    <linearGradient id="mobile-bg" x1="120" y1="80" x2="680" y2="720" gradientUnits="userSpaceOnUse">
      <stop stop-color="#0c1b33" />
      <stop offset="1" stop-color="#071020" />
    </linearGradient>
    <linearGradient id="mobile-accent" x1="200" y1="160" x2="620" y2="640" gradientUnits="userSpaceOnUse">
      <stop stop-color="#f97316" />
      <stop offset="1" stop-color="#fb923c" />
    </linearGradient>
  </defs>
  <rect x="60" y="60" width="680" height="680" rx="120" fill="url(#mobile-bg)" />
  <rect x="280" y="160" width="240" height="480" rx="48" fill="#0f172a" stroke="#e2e8f0" stroke-width="12" />
  <rect x="310" y="200" width="180" height="320" rx="24" fill="#0c1324" stroke="#1f2937" stroke-width="8" />
  <rect x="336" y="550" width="128" height="36" rx="18" fill="#0c1324" stroke="#1f2937" stroke-width="6" />
  <circle cx="400" cy="610" r="10" fill="#1f2937" />
  <rect x="360" y="230" width="80" height="24" rx="12" fill="#111827" stroke="#334155" stroke-width="6" />
  <rect x="340" y="280" width="120" height="70" rx="16" fill="#0b1020" stroke="url(#mobile-accent)" stroke-width="8" />
  <rect x="340" y="370" width="120" height="70" rx="16" fill="#0b1020" stroke="#22c55e" stroke-width="8" />
  <rect x="340" y="460" width="120" height="70" rx="16" fill="#0b1020" stroke="#0ea5e9" stroke-width="8" />
  <circle cx="238" cy="260" r="46" fill="#111827" stroke="#22c55e" stroke-width="10" />
  <text x="226" y="276" fill="#22c55e" font-family="Arial, sans-serif" font-size="26" font-weight="700">A</text>
  <circle cx="560" cy="260" r="46" fill="#111827" stroke="#e5e7eb" stroke-width="10" />
  <text x="548" y="276" fill="#e5e7eb" font-family="Arial, sans-serif" font-size="30" font-weight="700"></text>
  <circle cx="230" cy="400" r="42" fill="#0b1222" stroke="#38bdf8" stroke-width="10" />
  <text x="204" y="414" fill="#38bdf8" font-family="Arial, sans-serif" font-size="34" font-weight="700">RN</text>
  <circle cx="570" cy="400" r="42" fill="#0b1222" stroke="#6366f1" stroke-width="10" />
  <text x="552" y="414" fill="#6366f1" font-family="Arial, sans-serif" font-size="30" font-weight="700">F</text>
  <circle cx="250" cy="540" r="40" fill="#0b1020" stroke="#f97316" stroke-width="10" />
  <text x="226" y="552" fill="#f97316" font-family="Arial, sans-serif" font-size="26" font-weight="700">Kt</text>
  <circle cx="550" cy="540" r="40" fill="#0b1020" stroke="#fbbf24" stroke-width="10" />
  <text x="526" y="552" fill="#fbbf24" font-family="Arial, sans-serif" font-size="22" font-weight="700">Swift</text>
  <rect x="300" y="120" width="200" height="20" rx="10" fill="url(#mobile-accent)" opacity="0.9" />
  <rect x="540" y="500" width="140" height="52" rx="16" fill="#0f172a" stroke="#e2e8f0" stroke-width="8" />
  <text x="560" y="532" fill="#e5e7eb" font-family="Arial, sans-serif" font-size="18" font-weight="700">Play Store</text>
  <rect x="120" y="500" width="140" height="52" rx="16" fill="#0f172a" stroke="#e2e8f0" stroke-width="8" />
  <text x="138" y="532" fill="#e5e7eb" font-family="Arial, sans-serif" font-size="18" font-weight="700">App Store</text>
</svg>
